<svg width="600" height="200" viewBox="0 0 600 200" fill="none" xmlns="http://www.w3.org/2000/svg">
  <g transform="translate(200,0)">
    <path d="M100 190C152.467 190 195 147.467 195 95C195 42.533 152.467 0 100 0C47.533 0 5 42.533 5 95C5 147.467 47.533 190 100 190Z" fill="#FF0000"/>
    <path d="M60 70C71.0457 70 80 61.0457 80 50C80 38.9543 71.0457 30 60 30C48.9543 30 40 38.9543 40 50C40 61.0457 48.9543 70 60 70Z" fill="black"/>
    <path d="M140 70C151.046 70 160 61.0457 160 50C160 38.9543 151.046 30 140 30C128.954 30 120 38.9543 120 50C120 61.0457 128.954 70 140 70Z" fill="black"/>
    <path d="M195 95C195 147.467 152.467 190 100 190C47.533 190 5 147.467 5 95C5 42.533 47.533 0 100 0C152.467 0 195 42.533 195 95ZM20 95C20 139.183 55.8172 175 100 175C144.183 175 180 139.183 180 95C180 50.8172 144.183 15 100 15C55.8172 15 20 50.8172 20 95Z" fill="black"/>
  </g>
  <g transform="translate(0,0)">
    <path d="M100 190C152.467 190 195 147.467 195 95C195 42.533 152.467 0 100 0C47.533 0 5 42.533 5 95C5 147.467 47.533 190 100 190Z" fill="#FF0000"/>
    <path d="M60 70C71.0457 70 80 61.0457 80 50C80 38.9543 71.0457 30 60 30C48.9543 30 40 38.9543 40 50C40 61.0457 48.9543 70 60 70Z" fill="black"/>
    <path d="M140 70C151.046 70 160 61.0457 160 50C160 38.9543 151.046 30 140 30C128.954 30 120 38.9543 120 50C120 61.0457 128.954 70 140 70Z" fill="black"/>
    <path d="M195 95C195 147.467 152.467 190 100 190C47.533 190 5 147.467 5 95C5 42.533 47.533 0 100 0C152.467 0 195 42.533 195 95ZM20 95C20 139.183 55.8172 175 100 175C144.183 175 180 139.183 180 95C180 50.8172 144.183 15 100 15C55.8172 15 20 50.8172 20 95Z" fill="black"/>
  </g>
  <g transform="translate(400,0)">
    <path d="M100 190C152.467 190 195 147.467 195 95C195 42.533 152.467 0 100 0C47.533 0 5 42.533 5 95C5 147.467 47.533 190 100 190Z" fill="#FF0000"/>
    <path d="M60 70C71.0457 70 80 61.0457 80 50C80 38.9543 71.0457 30 60 30C48.9543 30 40 38.9543 40 50C40 61.0457 48.9543 70 60 70Z" fill="black"/>
    <path d="M140 70C151.046 70 160 61.0457 160 50C160 38.9543 151.046 30 140 30C128.954 30 120 38.9543 120 50C120 61.0457 128.954 70 140 70Z" fill="black"/>
    <path d="M195 95C195 147.467 152.467 190 100 190C47.533 190 5 147.467 5 95C5 42.533 47.533 0 100 0C152.467 0 195 42.533 195 95ZM20 95C20 139.183 55.8172 175 100 175C144.183 175 180 139.183 180 95C180 50.8172 144.183 15 100 15C55.8172 15 20 50.8172 20 95Z" fill="black"/>
  </g>
</svg>

