<svg width="400" height="400" viewBox="0 0 400 400" fill="none" xmlns="http://www.w3.org/2000/svg">
  <path d="M200 380C304.934 380 390 294.934 390 190C390 85.0659 304.934 0 200 0C95.0659 0 10 85.0659 10 190C10 294.934 95.0659 380 200 380Z" fill="#FF0000"/>
  <path d="M120 140C142.091 140 160 122.091 160 100C160 77.9086 142.091 60 120 60C97.9086 60 80 77.9086 80 100C80 122.091 97.9086 140 120 140Z" fill="black"/>
  <path d="M280 140C302.091 140 320 122.091 320 100C320 77.9086 302.091 60 280 60C257.909 60 240 77.9086 240 100C240 122.091 257.909 140 280 140Z" fill="black"/>
  <path d="M200 300C244.183 300 280 264.183 280 220C280 175.817 244.183 140 200 140C155.817 140 120 175.817 120 220C120 264.183 155.817 300 200 300Z" fill="black"/>
  <path d="M390 190C390 294.934 304.934 380 200 380C95.0659 380 10 294.934 10 190C10 85.0659 95.0659 0 200 0C304.934 0 390 85.0659 390 190ZM40 190C40 278.366 111.634 350 200 350C288.366 350 360 278.366 360 190C360 101.634 288.366 30 200 30C111.634 30 40 101.634 40 190Z" fill="black"/>
</svg>

